<?xml version="1.0" encoding="UTF-8" standalone="no"?><!DOCTYPE svg PUBLIC "-//W3C//DTD SVG 1.1//EN" "http://www.w3.org/Graphics/SVG/1.1/DTD/svg11.dtd"><svg width="100%" height="100%" viewBox="0 0 2224 2224" version="1.1" xmlns="http://www.w3.org/2000/svg" xmlns:xlink="http://www.w3.org/1999/xlink" xml:space="preserve" xmlns:serif="http://www.serif.com/" style="fill-rule:evenodd;clip-rule:evenodd;"><g><g><clipPath id="_clip1"><path d="M2020.131,586.798l0,1100c0,197.77 -160.564,358.333 -358.333,358.333l-1100,0c-197.77,0 -358.333,-160.564 -358.333,-358.333l-0,-1100c0,-197.77 160.564,-358.333 358.333,-358.333l1100,0c197.77,0 358.333,160.564 358.333,358.333Z"/></clipPath><g clip-path="url(#_clip1)"><rect x="203.464" y="228.464" width="1816.667" height="1816.667" style="fill:none;"/><circle cx="1111.798" cy="1111.798" r="716.667" style="fill:none;stroke:#87fbff;stroke-opacity:0.08;stroke-width:191.67px;"/><circle cx="1111.798" cy="1136.798" r="720.833" style="fill:none;stroke:#a782ff;stroke-opacity:0.18;stroke-width:6.67px;stroke-dasharray:58.333,54.167;"/><path d="M378.464,1545.131c320.833,-187.5 525,-100 750,-262.5c225,-162.5 416.667,-345.833 733.333,-245.833" style="fill:none;fill-rule:nonzero;stroke:#43ffb5;stroke-opacity:0.16;stroke-width:12.5px;"/></g></g><g id="folder_shell"><path d="M453.464,774.298c0,-62.5 50,-112.5 112.5,-112.5l362.5,0c50,0 83.333,20.833 116.667,62.5l75,95.833l533.333,0c66.667,0 116.667,50 116.667,116.667l0,583.333c0,70.833 -54.167,125 -125,125l-1066.667,0c-70.833,0 -125,-54.167 -125,-125l0,-745.833Z" style="fill:url(#_Linear2);fill-rule:nonzero;stroke:url(#_Linear3);stroke-width:14.17px;stroke-linejoin:round;"/><path d="M461.798,928.464l1300,0l0,591.667c0,70.833 -54.167,125 -125,125l-1050,0c-75,0 -125,-54.167 -125,-125l0,-591.667Z" style="fill:url(#_Linear4);fill-rule:nonzero;stroke:#43ffb5;stroke-opacity:0.42;stroke-width:8.33px;"/><path d="M549.298,786.798l400,0l87.5,108.333l641.667,0" style="fill:none;fill-rule:nonzero;stroke:#7df9ff;stroke-opacity:0.92;stroke-width:12.5px;stroke-linecap:round;"/></g><g id="folder_circuit_overlay"><path d="M686.798,1232.631l258.333,0l125,-137.5l229.167,0l141.667,129.167" style="fill:none;fill-rule:nonzero;stroke:#93ffff;stroke-opacity:0.52;stroke-width:10.83px;stroke-linecap:round;stroke-linejoin:round;"/><circle cx="686.798" cy="1232.631" r="33.333" style="fill:url(#_Linear5);"/><circle cx="945.131" cy="1232.631" r="25" style="fill:url(#_Linear6);"/><circle cx="1070.131" cy="1095.131" r="29.167" style="fill:url(#_Linear7);"/><circle cx="1299.298" cy="1095.131" r="25" style="fill:url(#_Linear8);"/><circle cx="1440.964" cy="1224.298" r="33.333" style="fill:url(#_Linear9);"/><path d="M1028.464,1411.798c0,9.199 -7.468,16.667 -16.667,16.667l-266.667,0c-9.199,0 -16.667,-7.468 -16.667,-16.667c0,-9.199 7.468,-16.667 16.667,-16.667l266.667,0c9.199,0 16.667,7.468 16.667,16.667Z" style="fill:#e9fbff;fill-opacity:0.24;"/><path d="M1236.798,1495.131c0,9.199 -7.468,16.667 -16.667,16.667l-475,0c-9.199,0 -16.667,-7.468 -16.667,-16.667c0,-9.199 7.468,-16.667 16.667,-16.667l475,0c9.199,0 16.667,7.468 16.667,16.667Z" style="fill:#7df9ff;fill-opacity:0.25;"/></g><g id="folder_tab_signal"><circle cx="1461.798" cy="795.131" r="75" style="fill:#061429;stroke:#a782ff;stroke-width:9.17px;"/><path d="M1432.631,795.131l58.333,0m-29.167,-29.167l0,58.333" style="fill-rule:nonzero;stroke:#43ffb5;stroke-width:10px;stroke-linecap:round;"/></g></g><defs><linearGradient id="_Linear2" x1="0" y1="0" x2="1" y2="0" gradientUnits="userSpaceOnUse" gradientTransform="matrix(1316.666667,983.333333,-983.333333,1316.666667,453.464289,661.797622)"><stop offset="0" style="stop-color:#091c35;stop-opacity:0.96"/><stop offset="0.52" style="stop-color:#071226;stop-opacity:0.96"/><stop offset="1" style="stop-color:#020916;stop-opacity:0.98"/></linearGradient><linearGradient id="_Linear3" x1="0" y1="0" x2="1" y2="0" gradientUnits="userSpaceOnUse" gradientTransform="matrix(1316.666667,983.333333,-983.333333,1316.666667,453.464289,661.797622)"><stop offset="0" style="stop-color:#7df9ff;stop-opacity:1"/><stop offset="0.55" style="stop-color:#a782ff;stop-opacity:1"/><stop offset="1" style="stop-color:#43ffb5;stop-opacity:1"/></linearGradient><linearGradient id="_Linear4" x1="0" y1="0" x2="1" y2="0" gradientUnits="userSpaceOnUse" gradientTransform="matrix(1300,716.666667,-716.666667,1300,461.797622,928.464289)"><stop offset="0" style="stop-color:#33e7ff;stop-opacity:0.22"/><stop offset="0.48" style="stop-color:#7e5cff;stop-opacity:0.13"/><stop offset="1" style="stop-color:#0b1325;stop-opacity:0.82"/></linearGradient><linearGradient id="_Linear5" x1="0" y1="0" x2="1" y2="0" gradientUnits="userSpaceOnUse" gradientTransform="matrix(66.666667,66.666667,-66.666667,66.666667,653.464289,1199.297622)"><stop offset="0" style="stop-color:#a7ffff;stop-opacity:1"/><stop offset="1" style="stop-color:#16b8ff;stop-opacity:1"/></linearGradient><linearGradient id="_Linear6" x1="0" y1="0" x2="1" y2="0" gradientUnits="userSpaceOnUse" gradientTransform="matrix(50,50,-50,50,920.130956,1207.630956)"><stop offset="0" style="stop-color:#d8ccff;stop-opacity:1"/><stop offset="1" style="stop-color:#7e5cff;stop-opacity:1"/></linearGradient><linearGradient id="_Linear7" x1="0" y1="0" x2="1" y2="0" gradientUnits="userSpaceOnUse" gradientTransform="matrix(58.333333,58.333333,-58.333333,58.333333,1040.964289,1065.964289)"><stop offset="0" style="stop-color:#b9ffe7;stop-opacity:1"/><stop offset="1" style="stop-color:#43ffb5;stop-opacity:1"/></linearGradient><linearGradient id="_Linear8" x1="0" y1="0" x2="1" y2="0" gradientUnits="userSpaceOnUse" gradientTransform="matrix(50,50,-50,50,1274.297622,1070.130956)"><stop offset="0" style="stop-color:#a7ffff;stop-opacity:1"/><stop offset="1" style="stop-color:#16b8ff;stop-opacity:1"/></linearGradient><linearGradient id="_Linear9" x1="0" y1="0" x2="1" y2="0" gradientUnits="userSpaceOnUse" gradientTransform="matrix(66.666667,66.666667,-66.666667,66.666667,1407.630956,1190.964289)"><stop offset="0" style="stop-color:#b9ffe7;stop-opacity:1"/><stop offset="1" style="stop-color:#43ffb5;stop-opacity:1"/></linearGradient></defs></svg>