<?xml version="1.0" encoding="UTF-8" standalone="no"?><!DOCTYPE svg PUBLIC "-//W3C//DTD SVG 1.1//EN" "http://www.w3.org/Graphics/SVG/1.1/DTD/svg11.dtd"><svg width="100%" height="100%" viewBox="0 0 9266 9266" version="1.1" xmlns="http://www.w3.org/2000/svg" xmlns:xlink="http://www.w3.org/1999/xlink" xml:space="preserve" xmlns:serif="http://www.serif.com/" style="fill-rule:evenodd;clip-rule:evenodd;"><rect x="847.795" y="662.724" width="7569.446" height="7569.446" style="fill:none;"/><circle cx="4632.52" cy="4632.52" r="2986.113" style="fill:none;stroke:#87fbff;stroke-opacity:0.08;stroke-width:798.63px;"/><circle cx="4632.52" cy="4615.162" r="3003.471" style="fill:none;stroke:#a782ff;stroke-opacity:0.18;stroke-width:27.79px;stroke-dasharray:243.054,225.696;"/><path d="M2340.853,3562.033l711.804,-920.137l3159.721,0l711.804,920.137l0,2569.446c0,271.542 -220.125,491.667 -491.667,491.667l-3600,0c-271.542,0 -491.667,-220.125 -491.667,-491.667l0,-2569.446l0.004,-0Z" style="fill:url(#_Linear1);stroke:url(#_Linear2);stroke-width:59.04px;stroke-linejoin:round;"/><path d="M2340.853,3562.033l4583.333,0" style="fill:none;stroke:#7df9ff;stroke-opacity:0.8;stroke-width:52.08px;stroke-linecap:round;"/><path d="M3052.658,2641.891l-711.804,920.137l4583.333,0l-711.804,-920.137l-3159.725,0Z" style="fill:url(#_Linear3);stroke:url(#_Linear4);stroke-width:52.08px;stroke-linejoin:round;"/><path d="M4320.02,2641.891l625,0l16.325,1892.673l-315.775,-241.048l-328.16,240.37l2.61,-1891.995Z" style="fill:#0a172d;stroke:#43ffb5;stroke-opacity:0.72;stroke-width:45.77px;stroke-linejoin:round;"/><path d="M2615.158,4013.42l4027.779,0" style="fill:none;stroke:#e9fbff;stroke-opacity:0.16;stroke-width:34.71px;"/><path d="M6059.603,4968.278l0,444.446c0,134.145 -108.909,243.054 -243.054,243.054l-2368.058,0c-134.145,0 -243.054,-108.909 -243.054,-243.054l0,-444.446c0,-134.145 108.909,-243.054 243.054,-243.054l2368.058,0c134.145,0 243.054,108.909 243.054,243.054Z" style="fill:#061429;stroke:url(#_Linear5);stroke-width:52.08px;"/><text x="3520.856px" y="5465.422px" style="font-family:'Consolas', monospace;font-size:861.573px;fill:#a8f8ff;">.<tspan x="4063.479px 4606.102px 5148.724px " y="5465.422px 5465.422px 5465.422px ">tar</tspan></text><path d="M6160.295,4568.974c381.946,-34.721 486.113,-434.029 902.779,-434.029" style="fill:none;stroke:#a782ff;stroke-width:52.08px;stroke-linecap:round;"/><circle cx="7063.074" cy="4134.949" r="138.888" style="fill:url(#_Linear6);"/><path d="M3566.993,4534.564c-416.667,-34.721 -581.596,-336.804 -954.863,-336.804" style="fill:none;stroke:#7df9ff;stroke-width:52.08px;stroke-linecap:round;"/><circle cx="2612.131" cy="4197.755" r="138.887" style="fill:url(#_Linear7);"/><path d="M3306.577,5256.946c-451.387,17.362 -645.833,295.138 -1059.029,295.138" style="fill:none;stroke:#43ffb5;stroke-opacity:0.88;stroke-width:52.08px;stroke-linecap:round;"/><circle cx="2247.547" cy="5552.083" r="138.888" style="fill:url(#_Linear8);"/><path d="M6038.77,5801.616c0,43.117 -35.008,78.125 -78.125,78.125l-815.971,0c-43.117,0 -78.125,-35.008 -78.125,-78.125c0,-43.117 35.008,-78.125 78.125,-78.125l815.971,0c43.117,0 78.125,35.008 78.125,78.125Z" style="fill:#43ffb5;fill-opacity:0.58;"/><path d="M6038.77,6096.753c0,43.117 -35.008,78.125 -78.125,78.125l-607.637,0c-43.117,0 -78.125,-35.008 -78.125,-78.125c0,-43.117 35.008,-78.125 78.125,-78.125l607.637,0c43.117,0 78.125,35.008 78.125,78.125Z" style="fill:#7df9ff;fill-opacity:0.45;"/><path d="M2612.131,6085.512l798.613,381.946l937.5,-243.054l815.971,555.554l1093.75,-451.388" style="fill:none;stroke:#8afcff;stroke-opacity:0.42;stroke-width:38.21px;"/><circle cx="2612.131" cy="6085.512" r="138.887" style="fill:url(#_Linear9);"/><circle cx="3410.743" cy="6467.453" r="104.167" style="fill:url(#_Linear10);"/><circle cx="4348.243" cy="6224.399" r="156.25" style="fill:url(#_Linear11);"/><circle cx="5164.214" cy="6779.953" r="121.529" style="fill:url(#_Linear12);"/><circle cx="6257.964" cy="6328.566" r="138.888" style="fill:url(#_Linear13);"/><defs><linearGradient id="_Linear1" x1="0" y1="0" x2="1" y2="0" gradientUnits="userSpaceOnUse" gradientTransform="matrix(4583.333333,3981.25,-3981.25,4583.333333,2340.849282,2641.895115)"><stop offset="0" style="stop-color:#091c35;stop-opacity:0.96"/><stop offset="0.52" style="stop-color:#071226;stop-opacity:0.96"/><stop offset="1" style="stop-color:#020916;stop-opacity:0.98"/></linearGradient><linearGradient id="_Linear2" x1="0" y1="0" x2="1" y2="0" gradientUnits="userSpaceOnUse" gradientTransform="matrix(4583.333333,3981.25,-3981.25,4583.333333,2340.849282,2641.895115)"><stop offset="0" style="stop-color:#7df9ff;stop-opacity:1"/><stop offset="0.55" style="stop-color:#a782ff;stop-opacity:1"/><stop offset="1" style="stop-color:#43ffb5;stop-opacity:1"/></linearGradient><linearGradient id="_Linear3" x1="0" y1="0" x2="1" y2="0" gradientUnits="userSpaceOnUse" gradientTransform="matrix(4583.333333,920.1375,-920.1375,4583.333333,2340.853448,2641.890948)"><stop offset="0" style="stop-color:#33e7ff;stop-opacity:0.23"/><stop offset="0.48" style="stop-color:#7e5cff;stop-opacity:0.14"/><stop offset="1" style="stop-color:#0b1325;stop-opacity:0.84"/></linearGradient><linearGradient id="_Linear4" x1="0" y1="0" x2="1" y2="0" gradientUnits="userSpaceOnUse" gradientTransform="matrix(4583.333333,920.1375,-920.1375,4583.333333,2340.853448,2641.890948)"><stop offset="0" style="stop-color:#7df9ff;stop-opacity:1"/><stop offset="0.55" style="stop-color:#a782ff;stop-opacity:1"/><stop offset="1" style="stop-color:#43ffb5;stop-opacity:1"/></linearGradient><linearGradient id="_Linear5" x1="0" y1="0" x2="1" y2="0" gradientUnits="userSpaceOnUse" gradientTransform="matrix(2854.166667,930.554167,-930.554167,2854.166667,3205.436782,4725.224282)"><stop offset="0" style="stop-color:#7df9ff;stop-opacity:1"/><stop offset="0.55" style="stop-color:#a782ff;stop-opacity:1"/><stop offset="1" style="stop-color:#43ffb5;stop-opacity:1"/></linearGradient><linearGradient id="_Linear6" x1="0" y1="0" x2="1" y2="0" gradientUnits="userSpaceOnUse" gradientTransform="matrix(277.775,277.775,-277.775,277.775,6924.186782,3996.061782)"><stop offset="0" style="stop-color:#d8ccff;stop-opacity:1"/><stop offset="1" style="stop-color:#7e5cff;stop-opacity:1"/></linearGradient><linearGradient id="_Linear7" x1="0" y1="0" x2="1" y2="0" gradientUnits="userSpaceOnUse" gradientTransform="matrix(277.775,277.775,-277.775,277.775,2473.243292,4058.867901)"><stop offset="0" style="stop-color:#a7ffff;stop-opacity:1"/><stop offset="1" style="stop-color:#16b8ff;stop-opacity:1"/></linearGradient><linearGradient id="_Linear8" x1="0" y1="0" x2="1" y2="0" gradientUnits="userSpaceOnUse" gradientTransform="matrix(277.775,277.775,-277.775,277.775,2108.659959,5413.195754)"><stop offset="0" style="stop-color:#b9ffe7;stop-opacity:1"/><stop offset="1" style="stop-color:#43ffb5;stop-opacity:1"/></linearGradient><linearGradient id="_Linear9" x1="0" y1="0" x2="1" y2="0" gradientUnits="userSpaceOnUse" gradientTransform="matrix(277.775,277.775,-277.775,277.775,2473.243292,5946.624215)"><stop offset="0" style="stop-color:#a7ffff;stop-opacity:1"/><stop offset="1" style="stop-color:#16b8ff;stop-opacity:1"/></linearGradient><linearGradient id="_Linear10" x1="0" y1="0" x2="1" y2="0" gradientUnits="userSpaceOnUse" gradientTransform="matrix(208.333333,208.333333,-208.333333,208.333333,3306.576626,6363.286715)"><stop offset="0" style="stop-color:#d8ccff;stop-opacity:1"/><stop offset="1" style="stop-color:#7e5cff;stop-opacity:1"/></linearGradient><linearGradient id="_Linear11" x1="0" y1="0" x2="1" y2="0" gradientUnits="userSpaceOnUse" gradientTransform="matrix(312.5,312.5,-312.5,312.5,4191.993292,6068.149215)"><stop offset="0" style="stop-color:#b9ffe7;stop-opacity:1"/><stop offset="1" style="stop-color:#43ffb5;stop-opacity:1"/></linearGradient><linearGradient id="_Linear12" x1="0" y1="0" x2="1" y2="0" gradientUnits="userSpaceOnUse" gradientTransform="matrix(243.058333,243.058333,-243.058333,243.058333,5042.684959,6658.424215)"><stop offset="0" style="stop-color:#a7ffff;stop-opacity:1"/><stop offset="1" style="stop-color:#16b8ff;stop-opacity:1"/></linearGradient><linearGradient id="_Linear13" x1="0" y1="0" x2="1" y2="0" gradientUnits="userSpaceOnUse" gradientTransform="matrix(277.775,277.775,-277.775,277.775,6119.076626,6189.678382)"><stop offset="0" style="stop-color:#a7ffff;stop-opacity:1"/><stop offset="1" style="stop-color:#16b8ff;stop-opacity:1"/></linearGradient></defs></svg>