<?xml version="1.0" encoding="UTF-8" standalone="no"?><!DOCTYPE svg PUBLIC "-//W3C//DTD SVG 1.1//EN" "http://www.w3.org/Graphics/SVG/1.1/DTD/svg11.dtd"><svg width="100%" height="100%" viewBox="0 0 9267 9267" version="1.1" xmlns="http://www.w3.org/2000/svg" xmlns:xlink="http://www.w3.org/1999/xlink" xml:space="preserve" xmlns:serif="http://www.serif.com/" style="fill-rule:evenodd;clip-rule:evenodd;"><g id="shared_components"><clipPath id="_clip1"><path d="M8417.213,2444.992l0,4583.333c0,824.042 -669.017,1493.054 -1493.054,1493.054l-4583.333,0c-824.042,0 -1493.054,-669.017 -1493.054,-1493.054l0,-4583.333c0,-824.042 669.017,-1493.054 1493.054,-1493.054l4583.333,0c824.042,0 1493.054,669.017 1493.054,1493.054Z"/></clipPath><g clip-path="url(#_clip1)"><rect x="847.767" y="951.933" width="7569.446" height="7569.446" style="fill:none;"/><circle cx="4632.492" cy="4632.492" r="2986.113" style="fill:none;stroke:#87fbff;stroke-opacity:0.08;stroke-width:798.63px;"/><circle cx="4632.492" cy="4736.658" r="3003.471" style="fill:none;stroke:#a782ff;stroke-opacity:0.18;stroke-width:27.79px;stroke-dasharray:243.054,225.696;"/></g></g><g id="metadata_json_file"><path d="M2601.242,1958.879l2986.113,0l1128.471,1128.471l0,4114.583l-4114.583,-0l0,-5243.054Z" style="fill:url(#_Linear2);stroke:url(#_Linear3);stroke-width:55.54px;"/><path d="M5587.35,1976.242l0,1111.112l1111.112,0" style="fill:#0b1325;stroke:#a782ff;stroke-width:52.08px;"/><path d="M5760.963,2236.658l677.083,677.083l-677.083,0l0,-677.083Z" style="fill:url(#_Linear4);"/><path d="M5097.075,2681.1l0,362.82c0,91.986 -74.681,166.667 -166.667,166.667l-1718.058,0c-91.986,0 -166.667,-74.681 -166.667,-166.667l0,-362.82c0,-91.986 74.681,-166.667 166.667,-166.667l1718.058,0c91.986,0 166.667,74.681 166.667,166.667Z" style="fill:#061429;stroke:#7df9ff;stroke-width:50px;"/><text x="3319.854px" y="3066.559px" style="font-family:'Consolas', monospace;font-size:639.469px;fill:#a8f8ff;">J<tspan x="3697.015px 4074.177px 4451.338px " y="3066.559px 3066.559px 3066.559px ">SON</tspan></text><text x="2891.698px" y="4466.824px" style="font-family:'Consolas', monospace;font-size:1355.427px;fill:#a8f8ff;">{</text><text x="5989.769px" y="5643.01px" style="font-family:'Consolas', monospace;font-size:1279.768px;fill:#a8f8ff;">}</text><path d="M3698.463,3729.713l1085.071,0" style="fill:none;stroke:url(#_Linear5);stroke-width:156.25px;stroke-linecap:round;"/><path d="M5396.379,3729.713l520.833,0" style="fill:none;stroke:#e9fbff;stroke-opacity:0.26;stroke-width:121.53px;stroke-linecap:round;"/><circle cx="5049.158" cy="3646.379" r="47.917" style="fill:#7df9ff;"/><circle cx="5049.158" cy="3813.046" r="47.917" style="fill:#7df9ff;"/><path d="M3698.463,4372.075l850.696,0" style="fill:none;stroke:#43ffb5;stroke-opacity:0.78;stroke-width:156.25px;stroke-linecap:round;"/><path d="M5396.379,4372.075l520.833,0" style="fill:none;stroke:#e9fbff;stroke-opacity:0.22;stroke-width:121.53px;stroke-linecap:round;"/><circle cx="5049.158" cy="4288.742" r="47.917" style="fill:#43ffb5;"/><circle cx="5049.158" cy="4455.408" r="47.917" style="fill:#43ffb5;"/><path d="M3851.242,4649.85l0,1024.304l538.196,0" style="fill:none;stroke:#7df9ff;stroke-opacity:0.36;stroke-width:34.71px;stroke-linecap:round;"/><path d="M4406.796,5031.796l711.804,0" style="fill:none;stroke:url(#_Linear6);stroke-width:147.57px;stroke-linecap:round;"/><path d="M5726.242,5031.796l416.667,0" style="fill:none;stroke:#e9fbff;stroke-opacity:0.24;stroke-width:121.53px;stroke-linecap:round;"/><text x="3888.683px" y="5276.326px" style="font-family:'Consolas', monospace;font-size:909.427px;fill:#a8f8ff;">{</text><circle cx="5483.183" cy="4948.463" r="43.75" style="fill:#7df9ff;"/><circle cx="5483.183" cy="5115.129" r="43.75" style="fill:#7df9ff;"/><path d="M4406.796,5691.517l711.804,0" style="fill:none;stroke:#a782ff;stroke-width:147.57px;stroke-linecap:round;"/><path d="M5726.242,5691.517l416.667,0" style="fill:none;stroke:#e9fbff;stroke-opacity:0.24;stroke-width:121.53px;stroke-linecap:round;"/><circle cx="5483.183" cy="5608.183" r="43.75" style="fill:#a782ff;"/><circle cx="5483.183" cy="5774.85" r="43.75" style="fill:#a782ff;"/><path d="M3705.408,6316.517l1048.612,0" style="fill:none;stroke:#a782ff;stroke-width:156.25px;stroke-linecap:round;"/><path d="M5448.463,6316.517l520.833,0" style="fill:none;stroke:#e9fbff;stroke-opacity:0.24;stroke-width:121.53px;stroke-linecap:round;"/><circle cx="5049.158" cy="6233.183" r="47.917" style="fill:#a782ff;"/><circle cx="5049.158" cy="6399.85" r="47.917" style="fill:#a782ff;"/></g><g id="shared_bottom_nodes" opacity="0.95"><path d="M2323.463,6715.825l798.613,381.946l937.5,-243.054l815.971,555.554l1093.75,-451.388" style="fill:none;stroke:#8afcff;stroke-opacity:0.42;stroke-width:38.21px;"/><circle cx="2323.463" cy="6715.825" r="138.887" style="fill:url(#_Linear7);"/><circle cx="3122.075" cy="7097.767" r="104.167" style="fill:url(#_Linear8);"/><circle cx="4059.575" cy="6854.713" r="156.25" style="fill:url(#_Linear9);"/><circle cx="4875.546" cy="7410.267" r="121.529" style="fill:url(#_Linear10);"/><circle cx="5969.296" cy="6958.879" r="138.888" style="fill:url(#_Linear11);"/></g><defs><linearGradient id="_Linear2" x1="0" y1="0" x2="1" y2="0" gradientUnits="userSpaceOnUse" gradientTransform="matrix(4114.583333,5243.054167,-5243.054167,4114.583333,2601.241667,1958.879167)"><stop offset="0" style="stop-color:#091c35;stop-opacity:0.96"/><stop offset="0.52" style="stop-color:#071226;stop-opacity:0.96"/><stop offset="1" style="stop-color:#020916;stop-opacity:0.98"/></linearGradient><linearGradient id="_Linear3" x1="0" y1="0" x2="1" y2="0" gradientUnits="userSpaceOnUse" gradientTransform="matrix(4114.583333,5243.054167,-5243.054167,4114.583333,2601.241667,1958.879167)"><stop offset="0" style="stop-color:#7df9ff;stop-opacity:1"/><stop offset="0.55" style="stop-color:#a782ff;stop-opacity:1"/><stop offset="1" style="stop-color:#43ffb5;stop-opacity:1"/></linearGradient><linearGradient id="_Linear4" x1="0" y1="0" x2="1" y2="0" gradientUnits="userSpaceOnUse" gradientTransform="matrix(677.083333,677.083333,-677.083333,677.083333,5760.9625,2236.658333)"><stop offset="0" style="stop-color:#33e7ff;stop-opacity:0.23"/><stop offset="0.48" style="stop-color:#7e5cff;stop-opacity:0.14"/><stop offset="1" style="stop-color:#0b1325;stop-opacity:0.84"/></linearGradient><linearGradient id="_Linear5" x1="0" y1="0" x2="1" y2="0" gradientUnits="userSpaceOnUse" gradientTransform="matrix(0.000002,0,0,0.000002,-959444.046363,3729.7125)"><stop offset="0" style="stop-color:#a7ffff;stop-opacity:0.94"/><stop offset="1" style="stop-color:#16b8ff;stop-opacity:0.94"/></linearGradient><linearGradient id="_Linear6" x1="0" y1="0" x2="1" y2="0" gradientUnits="userSpaceOnUse" gradientTransform="matrix(0.000002,0,0,0.000002,-748419.356763,5031.795833)"><stop offset="0" style="stop-color:#a7ffff;stop-opacity:0.94"/><stop offset="1" style="stop-color:#16b8ff;stop-opacity:0.94"/></linearGradient><linearGradient id="_Linear7" x1="0" y1="0" x2="1" y2="0" gradientUnits="userSpaceOnUse" gradientTransform="matrix(277.775,277.775,-277.775,277.775,2184.575,6576.9375)"><stop offset="0" style="stop-color:#a7ffff;stop-opacity:1"/><stop offset="1" style="stop-color:#16b8ff;stop-opacity:1"/></linearGradient><linearGradient id="_Linear8" x1="0" y1="0" x2="1" y2="0" gradientUnits="userSpaceOnUse" gradientTransform="matrix(208.333333,208.333333,-208.333333,208.333333,3017.908333,6993.6)"><stop offset="0" style="stop-color:#d8ccff;stop-opacity:1"/><stop offset="1" style="stop-color:#7e5cff;stop-opacity:1"/></linearGradient><linearGradient id="_Linear9" x1="0" y1="0" x2="1" y2="0" gradientUnits="userSpaceOnUse" gradientTransform="matrix(312.5,312.5,-312.5,312.5,3903.325,6698.4625)"><stop offset="0" style="stop-color:#b9ffe7;stop-opacity:1"/><stop offset="1" style="stop-color:#43ffb5;stop-opacity:1"/></linearGradient><linearGradient id="_Linear10" x1="0" y1="0" x2="1" y2="0" gradientUnits="userSpaceOnUse" gradientTransform="matrix(243.058333,243.058333,-243.058333,243.058333,4754.016667,7288.7375)"><stop offset="0" style="stop-color:#a7ffff;stop-opacity:1"/><stop offset="1" style="stop-color:#16b8ff;stop-opacity:1"/></linearGradient><linearGradient id="_Linear11" x1="0" y1="0" x2="1" y2="0" gradientUnits="userSpaceOnUse" gradientTransform="matrix(277.775,277.775,-277.775,277.775,5830.408333,6819.991667)"><stop offset="0" style="stop-color:#a7ffff;stop-opacity:1"/><stop offset="1" style="stop-color:#16b8ff;stop-opacity:1"/></linearGradient></defs></svg>