<?xml version="1.0" encoding="UTF-8" standalone="no"?><!DOCTYPE svg PUBLIC "-//W3C//DTD SVG 1.1//EN" "http://www.w3.org/Graphics/SVG/1.1/DTD/svg11.dtd"><svg width="100%" height="100%" viewBox="0 0 2224 2224" version="1.1" xmlns="http://www.w3.org/2000/svg" xmlns:xlink="http://www.w3.org/1999/xlink" xml:space="preserve" xmlns:serif="http://www.serif.com/" style="fill-rule:evenodd;clip-rule:evenodd;"><g><clipPath id="_clip1"><path d="M2020.131,586.798l0,1100c0,197.77 -160.564,358.333 -358.333,358.333l-1100,0c-197.77,0 -358.333,-160.564 -358.333,-358.333l0,-1100c0,-197.77 160.564,-358.333 358.333,-358.333l1100,0c197.77,0 358.333,160.564 358.333,358.333Z"/></clipPath><g clip-path="url(#_clip1)"><rect x="203.464" y="228.464" width="1816.667" height="1816.667" style="fill:none;"/><circle cx="1111.798" cy="1111.798" r="716.667" style="fill:none;stroke:#87fbff;stroke-opacity:0.08;stroke-width:191.67px;"/><circle cx="1111.798" cy="1136.798" r="720.833" style="fill:none;stroke:#a782ff;stroke-opacity:0.18;stroke-width:6.67px;stroke-dasharray:58.333,54.167;"/><path d="M378.464,1545.131c320.833,-187.5 525,-100 750,-262.5c225,-162.5 416.667,-345.833 733.333,-245.833" style="fill:none;fill-rule:nonzero;stroke:#43ffb5;stroke-opacity:0.16;stroke-width:12.5px;"/></g></g><g id="method_card"><path d="M1711.798,661.798l0,783.333c0,78.188 -63.479,141.667 -141.667,141.667l-916.667,0c-78.188,0 -141.667,-63.479 -141.667,-141.667l0,-783.333c0,-78.188 63.479,-141.667 141.667,-141.667l916.667,0c78.188,0 141.667,63.479 141.667,141.667Z" style="fill:url(#_Linear2);stroke:url(#_Linear3);stroke-width:12.5px;"/><path d="M1011.798,665.964c0,20.697 -16.803,37.5 -37.5,37.5l-325,0c-20.697,0 -37.5,-16.803 -37.5,-37.5c0,-20.697 16.803,-37.5 37.5,-37.5l325,0c20.697,0 37.5,16.803 37.5,37.5Z" style="fill:url(#_Linear4);"/><text x="1127.096px" y="706.122px" style="font-family:'Consolas', monospace;font-size:125.85px;fill:#a8f8ff;">M<tspan x="1196.592px 1266.087px 1335.582px 1405.077px " y="706.122px 706.122px 706.122px 706.122px ">ODEL</tspan></text><path d="M640.964,1382.631c137.5,-229.167 250,-54.167 362.5,-262.5c112.5,-208.333 250,-187.5 412.5,41.667c162.5,229.167 116.667,254.167 216.667,54.167" style="fill:none;fill-rule:nonzero;stroke:#43ffb5;stroke-opacity:0.92;stroke-width:16.67px;stroke-linecap:round;"/><path d="M649.298,1411.798l983.333,0" style="fill:none;fill-rule:nonzero;stroke:#e9fbff;stroke-opacity:0.22;stroke-width:8.33px;"/><path d="M649.298,1411.798l0,-550" style="fill:none;fill-rule:nonzero;stroke:#e9fbff;stroke-opacity:0.22;stroke-width:8.33px;"/></g><g id="analysis_pipeline"><path d="M911.798,886.798l0,50c0,34.495 -28.005,62.5 -62.5,62.5l-145.833,0c-34.495,0 -62.5,-28.005 -62.5,-62.5l0,-50c0,-34.495 28.005,-62.5 62.5,-62.5l145.833,0c34.495,0 62.5,28.005 62.5,62.5Z" style="fill:#061429;stroke:#7df9ff;stroke-width:9.58px;"/><path d="M1249.298,886.798l0,50c0,34.495 -28.005,62.5 -62.5,62.5l-145.833,0c-34.495,0 -62.5,-28.005 -62.5,-62.5l0,-50c0,-34.495 28.005,-62.5 62.5,-62.5l145.833,0c34.495,0 62.5,28.005 62.5,62.5Z" style="fill:#061429;stroke:#a782ff;stroke-width:9.58px;"/><path d="M1586.798,886.798l0,50c0,34.495 -28.005,62.5 -62.5,62.5l-145.833,0c-34.495,0 -62.5,-28.005 -62.5,-62.5l0,-50c0,-34.495 28.005,-62.5 62.5,-62.5l145.833,0c34.495,0 62.5,28.005 62.5,62.5Z" style="fill:#061429;stroke:#43ffb5;stroke-width:9.58px;"/><path d="M911.798,911.798l66.667,0m270.833,0l66.667,0" style="fill-rule:nonzero;stroke:#93ffff;stroke-width:10.42px;stroke-linecap:round;"/><text x="724.199px" y="963.745px" style="font-family:'Consolas', monospace;font-size:162.796px;fill:#dffcff;">X</text><text x="1071.19px" y="957.002px" style="font-family:'Consolas', monospace;font-size:155.593px;fill:#dffcff;">ƒ</text><text x="1401.344px" y="937.793px" style="font-family:'Consolas', monospace;font-size:173.983px;fill:#dffcff;">p</text></g><g id="statistical_symbols"><circle cx="615.964" cy="1178.464" r="29.167" style="fill:url(#_Linear5);"/><circle cx="786.798" cy="1253.464" r="25" style="fill:url(#_Linear6);"/><circle cx="945.131" cy="1153.464" r="29.167" style="fill:url(#_Linear7);"/><circle cx="1153.464" cy="1045.131" r="29.167" style="fill:url(#_Linear8);"/><circle cx="1370.131" cy="1165.964" r="25" style="fill:url(#_Linear9);"/><text x="1293.324px" y="1524.757px" style="font-family:'Consolas', monospace;font-size:116.05px;fill:#a8f8ff;">α<tspan x="1357.407px 1421.49px 1485.573px 1549.657px " y="1524.757px 1524.757px 1524.757px 1524.757px ">=.05</tspan></text><text x="644.645px" y="1517.436px" style="font-family:'Consolas', monospace;font-size:122.055px;fill:#a8f8ff;">b<tspan x="712.044px 779.444px 846.843px 914.243px 981.642px 1049.042px " y="1517.436px 1517.436px 1517.436px 1517.436px 1517.436px 1517.436px ">1 -&gt; y</tspan></text></g><g id="method_validation_nodes"><path d="M457.631,1095.131c-79.167,-100 -25,-262.5 116.667,-291.667" style="fill:none;fill-rule:nonzero;stroke:#7df9ff;stroke-opacity:0.58;stroke-width:9.17px;"/><path d="M1765.964,1095.131c95.833,-116.667 33.333,-275 -112.5,-300" style="fill:none;fill-rule:nonzero;stroke:#43ffb5;stroke-opacity:0.58;stroke-width:9.17px;"/><circle cx="457.631" cy="1095.131" r="37.5" style="fill:url(#_Linear10);"/><circle cx="1765.964" cy="1095.131" r="37.5" style="fill:url(#_Linear11);"/></g><defs><linearGradient id="_Linear2" x1="0" y1="0" x2="1" y2="0" gradientUnits="userSpaceOnUse" gradientTransform="matrix(1200,1066.666667,-1066.666667,1200,511.797622,520.130956)"><stop offset="0" style="stop-color:#091c35;stop-opacity:0.96"/><stop offset="0.52" style="stop-color:#071226;stop-opacity:0.96"/><stop offset="1" style="stop-color:#020916;stop-opacity:0.98"/></linearGradient><linearGradient id="_Linear3" x1="0" y1="0" x2="1" y2="0" gradientUnits="userSpaceOnUse" gradientTransform="matrix(1200,1066.666667,-1066.666667,1200,511.797622,520.130956)"><stop offset="0" style="stop-color:#7df9ff;stop-opacity:1"/><stop offset="0.55" style="stop-color:#a782ff;stop-opacity:1"/><stop offset="1" style="stop-color:#43ffb5;stop-opacity:1"/></linearGradient><linearGradient id="_Linear4" x1="0" y1="0" x2="1" y2="0" gradientUnits="userSpaceOnUse" gradientTransform="matrix(400,75,-75,400,611.797622,628.464289)"><stop offset="0" style="stop-color:#a7ffff;stop-opacity:0.92"/><stop offset="1" style="stop-color:#16b8ff;stop-opacity:0.92"/></linearGradient><linearGradient id="_Linear5" x1="0" y1="0" x2="1" y2="0" gradientUnits="userSpaceOnUse" gradientTransform="matrix(58.333333,58.333333,-58.333333,58.333333,586.797622,1149.297622)"><stop offset="0" style="stop-color:#a7ffff;stop-opacity:1"/><stop offset="1" style="stop-color:#16b8ff;stop-opacity:1"/></linearGradient><linearGradient id="_Linear6" x1="0" y1="0" x2="1" y2="0" gradientUnits="userSpaceOnUse" gradientTransform="matrix(50,50,-50,50,761.797622,1228.464289)"><stop offset="0" style="stop-color:#d8ccff;stop-opacity:1"/><stop offset="1" style="stop-color:#7e5cff;stop-opacity:1"/></linearGradient><linearGradient id="_Linear7" x1="0" y1="0" x2="1" y2="0" gradientUnits="userSpaceOnUse" gradientTransform="matrix(58.333333,58.333333,-58.333333,58.333333,915.964289,1124.297622)"><stop offset="0" style="stop-color:#b9ffe7;stop-opacity:1"/><stop offset="1" style="stop-color:#43ffb5;stop-opacity:1"/></linearGradient><linearGradient id="_Linear8" x1="0" y1="0" x2="1" y2="0" gradientUnits="userSpaceOnUse" gradientTransform="matrix(58.333333,58.333333,-58.333333,58.333333,1124.297622,1015.964289)"><stop offset="0" style="stop-color:#a7ffff;stop-opacity:1"/><stop offset="1" style="stop-color:#16b8ff;stop-opacity:1"/></linearGradient><linearGradient id="_Linear9" x1="0" y1="0" x2="1" y2="0" gradientUnits="userSpaceOnUse" gradientTransform="matrix(50,50,-50,50,1345.130956,1140.964289)"><stop offset="0" style="stop-color:#d8ccff;stop-opacity:1"/><stop offset="1" style="stop-color:#7e5cff;stop-opacity:1"/></linearGradient><linearGradient id="_Linear10" x1="0" y1="0" x2="1" y2="0" gradientUnits="userSpaceOnUse" gradientTransform="matrix(75,75,-75,75,420.130956,1057.630956)"><stop offset="0" style="stop-color:#a7ffff;stop-opacity:1"/><stop offset="1" style="stop-color:#16b8ff;stop-opacity:1"/></linearGradient><linearGradient id="_Linear11" x1="0" y1="0" x2="1" y2="0" gradientUnits="userSpaceOnUse" gradientTransform="matrix(75,75,-75,75,1728.464289,1057.630956)"><stop offset="0" style="stop-color:#b9ffe7;stop-opacity:1"/><stop offset="1" style="stop-color:#43ffb5;stop-opacity:1"/></linearGradient></defs></svg>