<?xml version="1.0" encoding="UTF-8" standalone="no"?><!DOCTYPE svg PUBLIC "-//W3C//DTD SVG 1.1//EN" "http://www.w3.org/Graphics/SVG/1.1/DTD/svg11.dtd"><svg width="100%" height="100%" viewBox="0 0 2224 2224" version="1.1" xmlns="http://www.w3.org/2000/svg" xmlns:xlink="http://www.w3.org/1999/xlink" xml:space="preserve" xmlns:serif="http://www.serif.com/" style="fill-rule:evenodd;clip-rule:evenodd;"><g><clipPath id="_clip1"><path d="M2020.131,586.798l0,1100c0,197.77 -160.564,358.333 -358.333,358.333l-1100,0c-197.77,0 -358.333,-160.564 -358.333,-358.333l0,-1100c0,-197.77 160.564,-358.333 358.333,-358.333l1100,0c197.77,0 358.333,160.564 358.333,358.333Z"/></clipPath><g clip-path="url(#_clip1)"><rect x="203.464" y="228.464" width="1816.667" height="1816.667" style="fill:none;"/><circle cx="1111.798" cy="1111.798" r="716.667" style="fill:none;stroke:#87fbff;stroke-opacity:0.08;stroke-width:191.67px;"/><circle cx="1111.798" cy="1136.798" r="720.833" style="fill:none;stroke:#a782ff;stroke-opacity:0.18;stroke-width:6.67px;stroke-dasharray:58.333,54.167;"/><path d="M378.464,1545.131c320.833,-187.5 525,-100 750,-262.5c225,-162.5 416.667,-345.833 733.333,-245.833" style="fill:none;fill-rule:nonzero;stroke:#43ffb5;stroke-opacity:0.16;stroke-width:12.5px;"/></g></g><g id="tree_panel"><path d="M1740.964,628.464l0,933.333c0,78.188 -63.479,141.667 -141.667,141.667l-975,0c-78.188,0 -141.667,-63.479 -141.667,-141.667l0,-933.333c0,-78.188 63.479,-141.667 141.667,-141.667l975,0c78.188,0 141.667,63.479 141.667,141.667Z" style="fill:url(#_Linear2);stroke:url(#_Linear3);stroke-width:12.5px;"/><path d="M1363.881,611.637c0,21.847 -17.737,39.583 -39.583,39.583l-425,0c-21.847,0 -39.583,-17.737 -39.583,-39.583c0,-21.847 17.737,-39.583 39.583,-39.583l425,0c21.847,0 39.583,17.737 39.583,39.583Z" style="fill:url(#_Linear4);"/></g><g id="folder_tree_lines"><path d="M761.798,788.881l0,633.333m0,-504.167l216.667,0m-216.667,216.667l216.667,0m-216.667,216.667l216.667,0" style="fill-rule:nonzero;stroke:#93ffff;stroke-opacity:0.52;stroke-width:12.5px;stroke-linecap:round;"/><path d="M1220.131,918.048l233.333,0m-233.333,216.667l233.333,0m-233.333,216.667l233.333,0" style="fill-rule:nonzero;stroke:#93ffff;stroke-opacity:0.34;stroke-width:9.58px;stroke-linecap:round;"/></g><g id="tree_folders"><path d="M586.798,722.214l216.667,0l62.5,66.667l208.333,0l0,150l-487.5,0l0,-216.667Z" style="fill:#061429;fill-rule:nonzero;stroke:#7df9ff;stroke-width:29.51px;stroke-linejoin:round;"/><path d="M978.464,851.381l195.833,0l54.167,66.667l191.667,0l0,150l-441.667,0l0,-216.667Z" style="fill:#061429;fill-rule:nonzero;stroke:#a782ff;stroke-width:29.51px;stroke-linejoin:round;"/><path d="M978.464,1068.048l195.833,0l54.167,66.667l191.667,0l0,150l-441.667,0l0,-216.667Z" style="fill:#061429;fill-rule:nonzero;stroke:#43ffb5;stroke-width:29.51px;stroke-linejoin:round;"/><path d="M978.464,1284.714l195.833,0l54.167,66.667l191.667,0l0,150l-441.667,0l0,-216.667Z" style="fill:#061429;fill-rule:nonzero;stroke:#7df9ff;stroke-width:29.51px;stroke-linejoin:round;"/></g><g id="tree_file_nodes"><path d="M1636.798,905.548l0,41.667c0,20.697 -16.803,37.5 -37.5,37.5l-95.833,0c-20.697,0 -37.5,-16.803 -37.5,-37.5l0,-41.667c0,-20.697 16.803,-37.5 37.5,-37.5l95.833,0c20.697,0 37.5,16.803 37.5,37.5Z" style="fill:#061429;stroke:#7df9ff;stroke-width:7.5px;"/><path d="M1636.798,1122.214l0,41.667c0,20.697 -16.803,37.5 -37.5,37.5l-95.833,0c-20.697,0 -37.5,-16.803 -37.5,-37.5l0,-41.667c0,-20.697 16.803,-37.5 37.5,-37.5l95.833,0c20.697,0 37.5,16.803 37.5,37.5Z" style="fill:#061429;stroke:#a782ff;stroke-width:7.5px;"/><path d="M1636.798,1338.881l0,41.667c0,20.697 -16.803,37.5 -37.5,37.5l-95.833,0c-20.697,0 -37.5,-16.803 -37.5,-37.5l0,-41.667c0,-20.697 16.803,-37.5 37.5,-37.5l95.833,0c20.697,0 37.5,16.803 37.5,37.5Z" style="fill:#061429;stroke:#43ffb5;stroke-width:7.5px;"/><circle cx="1549.298" cy="926.381" r="20.833" style="fill:url(#_Linear5);"/><circle cx="1549.298" cy="1143.048" r="20.833" style="fill:url(#_Linear6);"/><circle cx="1549.298" cy="1359.714" r="20.833" style="fill:url(#_Linear7);"/></g><g id="project_schema_nodes" opacity="0.9"><path d="M565.964,1495.397l162.5,116.667l245.833,-66.667l195.833,108.333l254.167,-108.333" style="fill:none;fill-rule:nonzero;stroke:#8afcff;stroke-opacity:0.38;stroke-width:8.75px;"/><circle cx="565.964" cy="1495.397" r="29.167" style="fill:url(#_Linear8);"/><circle cx="728.464" cy="1612.063" r="25" style="fill:url(#_Linear9);"/><circle cx="974.298" cy="1545.397" r="29.167" style="fill:url(#_Linear10);"/><circle cx="1170.131" cy="1653.73" r="25" style="fill:url(#_Linear11);"/><circle cx="1424.298" cy="1545.397" r="29.167" style="fill:url(#_Linear12);"/></g><defs><linearGradient id="_Linear2" x1="0" y1="0" x2="1" y2="0" gradientUnits="userSpaceOnUse" gradientTransform="matrix(1258.333333,1216.666667,-1216.666667,1258.333333,482.630956,486.797622)"><stop offset="0" style="stop-color:#091c35;stop-opacity:0.96"/><stop offset="0.52" style="stop-color:#071226;stop-opacity:0.96"/><stop offset="1" style="stop-color:#020916;stop-opacity:0.98"/></linearGradient><linearGradient id="_Linear3" x1="0" y1="0" x2="1" y2="0" gradientUnits="userSpaceOnUse" gradientTransform="matrix(1258.333333,1216.666667,-1216.666667,1258.333333,482.630956,486.797622)"><stop offset="0" style="stop-color:#7df9ff;stop-opacity:1"/><stop offset="0.55" style="stop-color:#a782ff;stop-opacity:1"/><stop offset="1" style="stop-color:#43ffb5;stop-opacity:1"/></linearGradient><linearGradient id="_Linear4" x1="0" y1="0" x2="1" y2="0" gradientUnits="userSpaceOnUse" gradientTransform="matrix(504.166667,79.166667,-79.166667,504.166667,859.714289,572.053246)"><stop offset="0" style="stop-color:#a7ffff;stop-opacity:0.9"/><stop offset="1" style="stop-color:#16b8ff;stop-opacity:0.9"/></linearGradient><linearGradient id="_Linear5" x1="0" y1="0" x2="1" y2="0" gradientUnits="userSpaceOnUse" gradientTransform="matrix(41.666667,41.666667,-41.666667,41.666667,1528.464289,905.547622)"><stop offset="0" style="stop-color:#a7ffff;stop-opacity:1"/><stop offset="1" style="stop-color:#16b8ff;stop-opacity:1"/></linearGradient><linearGradient id="_Linear6" x1="0" y1="0" x2="1" y2="0" gradientUnits="userSpaceOnUse" gradientTransform="matrix(41.666667,41.666667,-41.666667,41.666667,1528.464289,1122.214289)"><stop offset="0" style="stop-color:#d8ccff;stop-opacity:1"/><stop offset="1" style="stop-color:#7e5cff;stop-opacity:1"/></linearGradient><linearGradient id="_Linear7" x1="0" y1="0" x2="1" y2="0" gradientUnits="userSpaceOnUse" gradientTransform="matrix(41.666667,41.666667,-41.666667,41.666667,1528.464289,1338.880956)"><stop offset="0" style="stop-color:#b9ffe7;stop-opacity:1"/><stop offset="1" style="stop-color:#43ffb5;stop-opacity:1"/></linearGradient><linearGradient id="_Linear8" x1="0" y1="0" x2="1" y2="0" gradientUnits="userSpaceOnUse" gradientTransform="matrix(58.333333,58.333333,-58.333333,58.333333,536.797622,1466.230138)"><stop offset="0" style="stop-color:#a7ffff;stop-opacity:1"/><stop offset="1" style="stop-color:#16b8ff;stop-opacity:1"/></linearGradient><linearGradient id="_Linear9" x1="0" y1="0" x2="1" y2="0" gradientUnits="userSpaceOnUse" gradientTransform="matrix(50,50,-50,50,703.464289,1587.063471)"><stop offset="0" style="stop-color:#d8ccff;stop-opacity:1"/><stop offset="1" style="stop-color:#7e5cff;stop-opacity:1"/></linearGradient><linearGradient id="_Linear10" x1="0" y1="0" x2="1" y2="0" gradientUnits="userSpaceOnUse" gradientTransform="matrix(58.333333,58.333333,-58.333333,58.333333,945.130956,1516.230138)"><stop offset="0" style="stop-color:#b9ffe7;stop-opacity:1"/><stop offset="1" style="stop-color:#43ffb5;stop-opacity:1"/></linearGradient><linearGradient id="_Linear11" x1="0" y1="0" x2="1" y2="0" gradientUnits="userSpaceOnUse" gradientTransform="matrix(50,50,-50,50,1145.130956,1628.730138)"><stop offset="0" style="stop-color:#a7ffff;stop-opacity:1"/><stop offset="1" style="stop-color:#16b8ff;stop-opacity:1"/></linearGradient><linearGradient id="_Linear12" x1="0" y1="0" x2="1" y2="0" gradientUnits="userSpaceOnUse" gradientTransform="matrix(58.333333,58.333333,-58.333333,58.333333,1395.130956,1516.230138)"><stop offset="0" style="stop-color:#b9ffe7;stop-opacity:1"/><stop offset="1" style="stop-color:#43ffb5;stop-opacity:1"/></linearGradient></defs></svg>